<svg xmlns="http://www.w3.org/2000/svg" width="256" height="256" viewBox="0 0 256 256">
  <defs>
    <linearGradient id="b" x1="0" x2="1" y1="0" y2="1">
      <stop offset="0" stop-color="#0a4aa6"/>
      <stop offset="1" stop-color="#0b2e6b"/>
    </linearGradient>
  </defs>
  <rect width="256" height="256" rx="56" fill="url(#b)"/>
  <circle cx="128" cy="128" r="88" fill="#ffd000"/>
  <path d="M76 152v-48h16v30c0 10 6 16 16 16s16-6 16-16v-30h16v30c0 10 6 16 16 16s16-6 16-16v-30h16v48c0 18-14 32-32 32-10 0-20-5-26-12-6 7-16 12-26 12-18 0-32-14-32-32z" fill="#fff"/>
</svg>

