<svg xmlns="http://www.w3.org/2000/svg" width="256" height="256" viewBox="0 0 256 256">
  <defs>
    <linearGradient id="g" x1="0" x2="1" y1="0" y2="1">
      <stop offset="0" stop-color="#6a59ff"/>
      <stop offset="1" stop-color="#38e8b0"/>
    </linearGradient>
  </defs>
  <rect width="256" height="256" rx="56" fill="#11162e"/>
  <circle cx="128" cy="128" r="92" fill="url(#g)" opacity="0.18"/>
  <path d="M68 168c14 16 32 24 56 24 40 0 68-28 68-64 0-35-28-60-64-60-22 0-40 8-52 22l20 18c8-10 18-16 32-16 20 0 36 14 36 34s-16 36-40 36c-14 0-26-6-34-16z" fill="#e6e9ff"/>
</svg>

